HIERARCHY
ROOT Hips
{
  OFFSET 379.812 89.8546 199.308
  CHANNELS 6 Xposition Yposition Zposition Zrotation Xrotation Yrotation
  JOINT RightUpLeg
  {
    OFFSET -9.23647 -1.58087 -0.0106892
    CHANNELS 6 Xposition Yposition Zposition Zrotation Xrotation Yrotation
    JOINT RightLeg
    {
      OFFSET 0.0134965 -41.8927 0.0604091
      CHANNELS 6 Xposition Yposition Zposition Zrotation Xrotation Yrotation
      JOINT RightFoot
      {
        OFFSET 1.48051 -42.8092 -0.00783309
        CHANNELS 6 Xposition Yposition Zposition Zrotation Xrotation Yrotation
        End Site
        {
          OFFSET 0 -7.69 17.5
        }
      }
    }
  }
  JOINT LeftUpLeg
  {
    OFFSET 9.33389 -1.62423 0.00865578
    CHANNELS 6 Xposition Yposition Zposition Zrotation Xrotation Yrotation
    JOINT LeftLeg
    {
      OFFSET 0.141563 -41.8655 -0.0153644
      CHANNELS 6 Xposition Yposition Zposition Zrotation Xrotation Yrotation
      JOINT LeftFoot
      {
        OFFSET -3.06875 -40.2367 2.27906
        CHANNELS 6 Xposition Yposition Zposition Zrotation Xrotation Yrotation
        End Site
        {
          OFFSET 0 -7.69 17.5
        }
      }
    }
  }
  JOINT Spine
  {
    OFFSET -0.0215596 14.3034 0.0877385
    CHANNELS 6 Xposition Yposition Zposition Zrotation Xrotation Yrotation
    JOINT Spine1
    {
      OFFSET 0.0203299 9.71904 0.0424096
      CHANNELS 6 Xposition Yposition Zposition Zrotation Xrotation Yrotation
      JOINT Spine2
      {
        OFFSET 0.0381898 10.1144 0.030281
        CHANNELS 6 Xposition Yposition Zposition Zrotation Xrotation Yrotation
        JOINT Spine3
        {
          OFFSET -0.00447327 9.71811 0.0360413
          CHANNELS 6 Xposition Yposition Zposition Zrotation Xrotation Yrotation
          JOINT Neck
          {
            OFFSET -0.0120629 10.3799 0.0594427
            CHANNELS 6 Xposition Yposition Zposition Zrotation Xrotation Yrotation
            JOINT Head
            {
              OFFSET 0.0583155 9.47182 0.0561506
              CHANNELS 6 Xposition Yposition Zposition Zrotation Xrotation Yrotation
              End Site
              {
                OFFSET 0 15.95 0
              }
            }
          }
          JOINT RightShoulder
          {
            OFFSET -3.16243 6.91267 0.0637715
            CHANNELS 6 Xposition Yposition Zposition Zrotation Xrotation Yrotation
            JOINT RightArm
            {
              OFFSET -12.7921 -0.0243452 0.0800232
              CHANNELS 6 Xposition Yposition Zposition Zrotation Xrotation Yrotation
              JOINT RightForeArm
              {
                OFFSET -26.4542 -0.0534222 -0.0134051
                CHANNELS 6 Xposition Yposition Zposition Zrotation Xrotation Yrotation
                JOINT RightHand
                {
                  OFFSET -25.9489 -0.0263489 0.0252124
                  CHANNELS 6 Xposition Yposition Zposition Zrotation Xrotation Yrotation
                  JOINT RightHandThumb1
                  {
                    OFFSET -2.48905 0.190105 3.12053
                    CHANNELS 6 Xposition Yposition Zposition Zrotation Xrotation Yrotation
                    JOINT RightHandThumb2
                    {
                      OFFSET -3.68274 0 0
                      CHANNELS 6 Xposition Yposition Zposition Zrotation Xrotation Yrotation
                      JOINT RightHandThumb3
                      {
                        OFFSET -2.55832 0 0
                        CHANNELS 6 Xposition Yposition Zposition Zrotation Xrotation Yrotation
                        End Site
                        {
                          OFFSET -2.194 0 0
                        }
                      }
                    }
                  }
                  JOINT RightInHandIndex
                  {
                    OFFSET -3.22368 0.508421 1.97842
                    CHANNELS 6 Xposition Yposition Zposition Zrotation Xrotation Yrotation
                    JOINT RightHandIndex1
                    {
                      OFFSET -5.21684 -0.091368 0.999158
                      CHANNELS 6 Xposition Yposition Zposition Zrotation Xrotation Yrotation
                      JOINT RightHandIndex2
                      {
                        OFFSET -3.61937 0 0
                        CHANNELS 6 Xposition Yposition Zposition Zrotation Xrotation Yrotation
                        JOINT RightHandIndex3
                        {
                          OFFSET -2.0521 0 0
                          CHANNELS 6 Xposition Yposition Zposition Zrotation Xrotation Yrotation
                          End Site
                          {
                            OFFSET -1.805 0 0
                          }
                        }
                      }
                    }
                  }
                  JOINT RightInHandMiddle
                  {
                    OFFSET -3.38211 0.517263 0.756737
                    CHANNELS 6 Xposition Yposition Zposition Zrotation Xrotation Yrotation
                    JOINT RightHandMiddle1
                    {
                      OFFSET -5.17411 -0.084 0.313895
                      CHANNELS 6 Xposition Yposition Zposition Zrotation Xrotation Yrotation
                      JOINT RightHandMiddle2
                      {
                        OFFSET -3.94947 0 0
                        CHANNELS 6 Xposition Yposition Zposition Zrotation Xrotation Yrotation
                        JOINT RightHandMiddle3
                        {
                          OFFSET -2.47579 0 0
                          CHANNELS 6 Xposition Yposition Zposition Zrotation Xrotation Yrotation
                          End Site
                          {
                            OFFSET -1.975 0 0
                          }
                        }
                      }
                    }
                  }
                  JOINT RightInHandRing
                  {
                    OFFSET -3.36516 0.537895 -0.128947
                    CHANNELS 6 Xposition Yposition Zposition Zrotation Xrotation Yrotation
                    JOINT RightHandRing1
                    {
                      OFFSET -4.63474 -0.022105 -0.478947
                      CHANNELS 6 Xposition Yposition Zposition Zrotation Xrotation Yrotation
                      JOINT RightHandRing2
                      {
                        OFFSET -3.44238 0 0
                        CHANNELS 6 Xposition Yposition Zposition Zrotation Xrotation Yrotation
                        JOINT RightHandRing3
                        {
                          OFFSET -2.3881 0 0
                          CHANNELS 6 Xposition Yposition Zposition Zrotation Xrotation Yrotation
                          End Site
                          {
                            OFFSET -1.857 0 0
                          }
                        }
                      }
                    }
                  }
                  JOINT RightInHandPinky
                  {
                    OFFSET -3.16105 0.469368 -1.20179
                    CHANNELS 6 Xposition Yposition Zposition Zrotation Xrotation Yrotation
                    JOINT RightHandPinky1
                    {
                      OFFSET -4.14105 -0.022105 -1.09053
                      CHANNELS 6 Xposition Yposition Zposition Zrotation Xrotation Yrotation
                      JOINT RightHandPinky2
                      {
                        OFFSET -2.75653 0 0
                        CHANNELS 6 Xposition Yposition Zposition Zrotation Xrotation Yrotation
                        JOINT RightHandPinky3
                        {
                          OFFSET -1.74189 0 0
                          CHANNELS 6 Xposition Yposition Zposition Zrotation Xrotation Yrotation
                          End Site
                          {
                            OFFSET -1.645 0 0
                          }
                        }
                      }
                    }
                  }
                }
              }
            }
          }
          JOINT LeftShoulder
          {
            OFFSET 3.2224 6.93748 0.0143969
            CHANNELS 6 Xposition Yposition Zposition Zrotation Xrotation Yrotation
            JOINT LeftArm
            {
              OFFSET 12.8146 -0.0174788 -0.0299971
              CHANNELS 6 Xposition Yposition Zposition Zrotation Xrotation Yrotation
              JOINT LeftForeArm
              {
                OFFSET 26.4732 -0.00116244 -0.0462928
                CHANNELS 6 Xposition Yposition Zposition Zrotation Xrotation Yrotation
                JOINT LeftHand
                {
                  OFFSET 25.997 0.006807 0.0061833
                  CHANNELS 6 Xposition Yposition Zposition Zrotation Xrotation Yrotation
                  JOINT LeftHandThumb1
                  {
                    OFFSET 2.48905 0.190105 3.12053
                    CHANNELS 6 Xposition Yposition Zposition Zrotation Xrotation Yrotation
                    JOINT LeftHandThumb2
                    {
                      OFFSET 3.68274 0 0
                      CHANNELS 6 Xposition Yposition Zposition Zrotation Xrotation Yrotation
                      JOINT LeftHandThumb3
                      {
                        OFFSET 2.55832 0 0
                        CHANNELS 6 Xposition Yposition Zposition Zrotation Xrotation Yrotation
                        End Site
                        {
                          OFFSET 2.194 0 0
                        }
                      }
                    }
                  }
                  JOINT LeftInHandIndex
                  {
                    OFFSET 3.22368 0.508421 1.97842
                    CHANNELS 6 Xposition Yposition Zposition Zrotation Xrotation Yrotation
                    JOINT LeftHandIndex1
                    {
                      OFFSET 5.21684 -0.091368 0.999158
                      CHANNELS 6 Xposition Yposition Zposition Zrotation Xrotation Yrotation
                      JOINT LeftHandIndex2
                      {
                        OFFSET 3.61937 0 0
                        CHANNELS 6 Xposition Yposition Zposition Zrotation Xrotation Yrotation
                        JOINT LeftHandIndex3
                        {
                          OFFSET 2.0521 0 0
                          CHANNELS 6 Xposition Yposition Zposition Zrotation Xrotation Yrotation
                          End Site
                          {
                            OFFSET 1.805 0 0
                          }
                        }
                      }
                    }
                  }
                  JOINT LeftInHandMiddle
                  {
                    OFFSET 3.38211 0.517263 0.756737
                    CHANNELS 6 Xposition Yposition Zposition Zrotation Xrotation Yrotation
                    JOINT LeftHandMiddle1
                    {
                      OFFSET 5.17411 -0.084 0.313895
                      CHANNELS 6 Xposition Yposition Zposition Zrotation Xrotation Yrotation
                      JOINT LeftHandMiddle2
                      {
                        OFFSET 3.94947 0 0
                        CHANNELS 6 Xposition Yposition Zposition Zrotation Xrotation Yrotation
                        JOINT LeftHandMiddle3
                        {
                          OFFSET 2.47579 0 0
                          CHANNELS 6 Xposition Yposition Zposition Zrotation Xrotation Yrotation
                          End Site
                          {
                            OFFSET 1.975 0 0
                          }
                        }
                      }
                    }
                  }
                  JOINT LeftInHandRing
                  {
                    OFFSET 3.36516 0.537895 -0.128947
                    CHANNELS 6 Xposition Yposition Zposition Zrotation Xrotation Yrotation
                    JOINT LeftHandRing1
                    {
                      OFFSET 4.63474 -0.022105 -0.478947
                      CHANNELS 6 Xposition Yposition Zposition Zrotation Xrotation Yrotation
                      JOINT LeftHandRing2
                      {
                        OFFSET 3.44238 0 0
                        CHANNELS 6 Xposition Yposition Zposition Zrotation Xrotation Yrotation
                        JOINT LeftHandRing3
                        {
                          OFFSET 2.3881 0 0
                          CHANNELS 6 Xposition Yposition Zposition Zrotation Xrotation Yrotation
                          End Site
                          {
                            OFFSET 1.857 0 0
                          }
                        }
                      }
                    }
                  }
                  JOINT LeftInHandPinky
                  {
                    OFFSET 3.16105 0.469368 -1.20179
                    CHANNELS 6 Xposition Yposition Zposition Zrotation Xrotation Yrotation
                    JOINT LeftHandPinky1
                    {
                      OFFSET 4.14105 -0.022105 -1.09053
                      CHANNELS 6 Xposition Yposition Zposition Zrotation Xrotation Yrotation
                      JOINT LeftHandPinky2
                      {
                        OFFSET 2.75653 0 0
                        CHANNELS 6 Xposition Yposition Zposition Zrotation Xrotation Yrotation
                        JOINT LeftHandPinky3
                        {
                          OFFSET 1.74189 0 0
                          CHANNELS 6 Xposition Yposition Zposition Zrotation Xrotation Yrotation
                          End Site
                          {
                            OFFSET 1.645 0 0
                          }
                        }
                      }
                    }
                  }
                }
              }
            }
          }
        }
      }
    }
  }
}
MOTION
Frames:	3
Frame Time:	0.00833333
362.989 88.0403 174.214 24.7213 0.453574 -140.566 -9.365 -1.62266 0.0217054 35.4381 -34.2633 26.0696 -0.122718 -41.8814 0.151755 -6.34197 11.9161 4.96952 0.812525 -42.4981 -0.0009 5.60401 11.9267 57.9121 9.26006 -1.52836 0.142187 34.9952 -10.9267 20.2767 0.00938839 -41.9019 0.0720756 -28.74 40.8919 29.3592 0.394758 -41.9096 -0.983299 6.10312 -20.1529 19.1451 -0.0613184 14.2997 0.0866995 -2.96617 -5.25358 -12.1037 -0.0142707 9.71204 0.0304008 -0.638391 -1.40155 -2.97153 -0.0216328 10.1206 -0.0476331 -1.08976 -2.32462 -4.86097 0.00173377 9.71718 -0.00751913 -0.694323 -0.478228 2.8005 0.00992796 10.3811 0.116886 0.525307 -7.62942 45.6546 -0.102328 9.45578 0.078426 -11.2916 10.0183 27.4144 -3.20465 6.91371 0.0646787 -0.857345 2.55348 3.826 -12.7993 -0.0119417 0.132082 29.2781 -64.5032 -2.08137 -26.4655 -0.0667443 0.0097296 47.7199 0.405743 115.817 -25.9907 -0.0576445 -0.0940646 5.75216 -24.0421 3.8457 -2.48905 0.190105 3.12053 28.184 10.7294 19.1592 -3.68274 -5.68434e-14 0 2.657e-15 -9.93923e-17 -10 -2.55832 -1.13687e-13 -2.84217e-14 -3.58927e-15 -2.68359e-15 -10 -3.22368 0.508421 1.97842 7.14382e-16 0 7.70291e-16 -5.21684 -0.091368 0.999158 19.9818 0.871897 2.3964 -3.61937 5.68434e-14 5.68434e-14 24 0 -3.18055e-15 -2.0521 -5.68434e-14 -2.84217e-14 20 -1.98785e-15 1.59028e-15 -3.38211 0.517263 0.756737 7.14382e-16 0 7.70291e-16 -5.17411 -0.084 0.313895 20 3.18055e-15 -7.95139e-16 -3.94947 0 0 24 0 -4.77083e-15 -2.47579 0 0 20 -7.95139e-16 -1.59028e-15 -3.36516 0.537895 -0.128947 7.14382e-16 0 7.70291e-16 -4.63474 -0.022105 -0.478947 19.9748 -1.02565 -2.81938 -3.44238 0 0 24 1.59028e-15 4.77083e-15 -2.3881 5.68434e-14 0 20 0 1.59028e-15 -3.16105 0.469368 -1.20179 7.14382e-16 0 7.70291e-16 -4.14105 -0.022105 -1.09053 19.7815 -3.00948 -8.30515 -2.75653 5.68434e-14 0 24 3.18055e-15 -3.18055e-15 -1.74189 0 0 20 1.59028e-15 1.59028e-15 3.2077 6.92104 -0.0348543 2.84428 -24.4671 -53.7027 12.7363 0.0321395 -0.0443768 -22.3836 25.9747 -100.852 26.4954 -0.00953803 0.0706587 29.7333 -10.6998 -30.4688 25.9768 -0.00910797 -0.0780149 -35.8378 -13.3055 -16.6061 2.48905 0.190105 3.12053 -28.184 10.7294 -19.1592 3.68274 5.68434e-14 2.84217e-14 4.72114e-15 -1.59028e-15 10 2.55832 -2.84217e-14 0 5.32096e-15 1.59028e-15 10 3.22368 0.508421 1.97842 2.5842e-15 0 1.59028e-15 5.21684 -0.091368 0.999158 -19.9818 0.871897 -2.3964 3.61937 0 2.84217e-14 -24 7.95139e-16 -0 2.0521 5.68434e-14 2.84217e-14 -20 1.3418e-15 1.59028e-15 3.38211 0.517263 0.756737 2.5842e-15 0 1.59028e-15 5.17411 -0.084 0.313895 -20 -1.59028e-15 1.59028e-15 3.94947 2.84217e-14 2.84217e-14 -24 7.95139e-16 -0 2.47579 0 2.84217e-14 -20 -3.97569e-16 -1.59028e-15 3.36516 0.537895 -0.128947 2.5842e-15 0 1.59028e-15 4.63474 -0.022105 -0.478947 -19.9748 -1.02565 2.81938 3.44238 0 0 -24 0 -0 2.3881 0 -2.84217e-14 -20 0 -0 3.16105 0.469368 -1.20179 2.5842e-15 0 1.59028e-15 4.14105 -0.022105 -1.09053 -19.7815 -3.00948 8.30515 2.75653 0 2.84217e-14 -24 -1.59028e-15 -1.39149e-15 1.74189 0 0 -20 1.59028e-15 7.95139e-16 
362.992 88.0345 174.234 24.7444 0.50364 -140.727 -9.33587 -1.63568 -0.0278188 35.4381 -34.3796 25.6076 -0.0935234 -41.8804 0.119043 -6.26096 12.0264 5.37148 0.854758 -42.5158 0.00953932 5.606 11.9656 58.0347 9.28064 -1.52794 0.0870787 34.9697 -11.0675 19.9325 0.0514971 -41.9024 0.0191993 -28.9589 40.9585 29.7723 0.426398 -41.8784 -0.968788 6.15627 -20.0761 19.2807 -0.061338 14.2998 0.0846806 -2.94552 -5.28396 -12.1298 -0.0129306 9.71199 0.0299924 -0.632402 -1.40816 -2.97839 -0.0214682 10.1207 -0.0438754 -1.08006 -2.33497 -4.87226 0.00164594 9.71726 -0.00798896 -0.691591 -0.471047 2.80382 0.0105505 10.3812 0.118082 0.516543 -7.53716 45.6741 -0.102585 9.45651 0.0780252 -11.2656 10.0934 27.4671 -3.20562 6.91502 0.0415835 -0.846658 2.60168 3.92046 -12.7992 -0.012362 0.107153 29.1831 -64.5002 -2.31268 -26.4645 -0.0608771 0.00851839 47.5466 0.359157 115.938 -25.9907 -0.0487243 0.0317234 5.3655 -23.3187 2.90377 -2.48905 0.190105 3.12053 28.184 10.7294 19.1592 -3.68274 0 0 -3.70131e-15 -9.93923e-17 -10 -2.55832 5.68434e-14 0 -4.23241e-16 2.28602e-15 -10 -3.22368 0.508421 1.97842 3.97569e-15 0 -1.49089e-15 -5.21684 -0.091368 0.999158 19.9818 0.871897 2.3964 -3.61937 0 0 24 0 3.18055e-15 -2.0521 0 0 20 -2.38542e-15 -0 -3.38211 0.517263 0.756737 3.97569e-15 0 -1.49089e-15 -5.17411 -0.084 0.313895 20 0 3.97569e-16 -3.94947 0 0 24 3.18055e-15 -1.59028e-15 -2.47579 0 0 20 -7.95139e-16 -0 -3.36516 0.537895 -0.128947 3.97569e-15 0 -1.49089e-15 -4.63474 -0.022105 -0.478947 19.9748 -1.02565 -2.81938 -3.44238 0 2.84217e-14 24 1.59028e-15 7.95139e-16 -2.3881 -5.68434e-14 -2.84217e-14 20 3.18055e-15 -1.59028e-15 -3.16105 0.469368 -1.20179 3.97569e-15 0 -1.49089e-15 -4.14105 -0.022105 -1.09053 19.7815 -3.00948 -8.30515 -2.75653 0 0 24 3.18055e-15 -2.38542e-15 -1.74189 5.68434e-14 0 20 -1.59028e-15 2.38542e-15 3.20674 6.92161 -0.0337208 2.84202 -24.387 -53.68 12.7356 0.0379599 -0.0428109 -22.3699 25.9823 -100.81 26.4945 -0.0100638 0.0806142 29.6235 -10.7277 -30.5941 25.9766 -0.00882746 -0.077181 -35.8495 -13.2678 -16.6747 2.48905 0.190105 3.12053 -28.184 10.7294 -19.1592 3.68274 0 2.84217e-14 1.75501e-15 -7.95139e-16 10 2.55832 0 2.84217e-14 -1.87831e-15 -7.95139e-16 10 3.22368 0.508421 1.97842 -1.49089e-16 3.18055e-15 -0 5.21684 -0.091368 0.999158 -19.9818 0.871897 -2.3964 3.61937 2.84217e-14 0 -24 0 3.18055e-15 2.0521 0 0 -20 1.39149e-15 1.59028e-15 3.38211 0.517263 0.756737 -1.49089e-16 3.18055e-15 -0 5.17411 -0.084 0.313895 -20 0 1.59028e-15 3.94947 0 2.84217e-14 -24 2.38542e-15 1.59028e-15 2.47579 5.68434e-14 0 -20 -2.18663e-15 1.59028e-15 3.36516 0.537895 -0.128947 -1.49089e-16 3.18055e-15 -0 4.63474 -0.022105 -0.478947 -19.9748 -1.02565 2.81938 3.44238 0 2.84217e-14 -24 -7.95139e-16 -1.59028e-15 2.3881 -5.68434e-14 2.84217e-14 -20 -1.59028e-15 1.59028e-15 3.16105 0.469368 -1.20179 -1.49089e-16 3.18055e-15 -0 4.14105 -0.022105 -1.09053 -19.7815 -3.00948 8.30515 2.75653 -2.84217e-14 0 -24 0 9.93923e-16 1.74189 -5.68434e-14 0 -20 1.59028e-15 4.77083e-15 
362.999 88.0193 174.261 24.78 0.559536 -140.896 -9.32833 -1.64332 -0.0470404 35.5059 -34.4339 25.4101 -0.0848008 -41.8794 0.100906 -6.2036 12.103 5.52938 0.916398 -42.5308 -0.00305619 5.53152 12.0295 58.216 9.29094 -1.52751 0.0534746 34.992 -11.1345 19.7742 0.0749022 -41.9029 -0.00898222 -29.0965 41.0719 29.946 0.452249 -41.8372 -0.94745 6.20759 -20.018 19.4338 -0.0613697 14.2999 0.0834852 -2.90941 -5.31094 -12.1315 -0.0114037 9.71194 0.0295825 -0.622877 -1.4136 -2.98028 -0.0212791 10.1208 -0.0398157 -1.0644 -2.34222 -4.87588 0.0016 9.71734 -0.00844755 -0.690327 -0.465919 2.80638 0.0130285 10.3813 0.117402 0.511214 -7.47667 45.6869 -0.102808 9.45725 0.0776228 -11.2603 10.1684 27.5033 -3.20672 6.91634 0.0051397 -0.839984 2.64893 4.10476 -12.7997 -0.00969235 0.0719456 28.898 -64.5375 -2.75847 -26.462 -0.0549709 0.00893629 47.4058 0.326164 116.041 -25.9906 -0.0438585 0.115064 5.12885 -22.8139 2.28608 -2.48905 0.190105 3.12053 28.184 10.7294 19.1592 -3.68274 0 -2.84217e-14 8.57887e-16 -4.14963e-15 -10 -2.55832 -5.68434e-14 -2.84217e-14 7.14876e-16 -3.72721e-16 -10 -3.22368 0.508421 1.97842 -4.47266e-15 0 -9.93923e-16 -5.21684 -0.091368 0.999158 19.9818 0.871897 2.3964 -3.61937 5.68434e-14 -2.84217e-14 24 1.59028e-15 -0 -2.0521 -5.68434e-14 -5.68434e-14 20 1.59028e-15 1.59028e-15 -3.38211 0.517263 0.756737 -4.47266e-15 0 -9.93923e-16 -5.17411 -0.084 0.313895 20 -1.59028e-15 7.95139e-16 -3.94947 5.68434e-14 0 24 0 7.95139e-16 -2.47579 0 0 20 3.18055e-15 1.59028e-15 -3.36516 0.537895 -0.128947 -4.47266e-15 0 -9.93923e-16 -4.63474 -0.022105 -0.478947 19.9748 -1.02565 -2.81938 -3.44238 -5.68434e-14 2.84217e-14 24 0 7.95139e-16 -2.3881 5.68434e-14 -2.84217e-14 20 -3.18055e-15 1.59028e-15 -3.16105 0.469368 -1.20179 -4.47266e-15 0 -9.93923e-16 -4.14105 -0.022105 -1.09053 19.7815 -3.00948 -8.30515 -2.75653 5.68434e-14 0 24 -3.18055e-15 1.49089e-15 -1.74189 -5.68434e-14 2.84217e-14 20 -3.18055e-15 3.18055e-15 3.20588 6.92177 -0.0325731 2.85359 -24.3056 -53.6519 12.7349 0.0420102 -0.0413263 -22.356 26.0053 -100.817 26.4935 -0.0105131 0.0780145 29.5605 -10.7238 -30.6623 25.9765 -0.00850493 -0.0763379 -35.8534 -13.2308 -16.7571 2.48905 0.190105 3.12053 -28.184 10.7294 -19.1592 3.68274 0 -2.84217e-14 -1.51934e-15 -3.97569e-15 10 2.55832 -2.84217e-14 0 -1.02044e-15 -7.95139e-16 10 3.22368 0.508421 1.97842 -1.68967e-15 0 3.97569e-16 5.21684 -0.091368 0.999158 -19.9818 0.871897 -2.3964 3.61937 2.84217e-14 0 -24 -1.59028e-15 -1.59028e-15 2.0521 -5.68434e-14 0 -20 9.93923e-17 3.18055e-15 3.38211 0.517263 0.756737 -1.68967e-15 0 3.97569e-16 5.17411 -0.084 0.313895 -20 2.38542e-15 -0 3.94947 0 -2.84217e-14 -24 7.95139e-16 1.59028e-15 2.47579 0 0 -20 -1.59028e-15 -1.59028e-15 3.36516 0.537895 -0.128947 -1.68967e-15 0 3.97569e-16 4.63474 -0.022105 -0.478947 -19.9748 -1.02565 2.81938 3.44238 0 0 -24 7.95139e-16 -1.59028e-15 2.3881 -5.68434e-14 2.84217e-14 -20 2.38542e-15 1.59028e-15 3.16105 0.469368 -1.20179 -1.68967e-15 0 3.97569e-16 4.14105 -0.022105 -1.09053 -19.7815 -3.00948 8.30515 2.75653 0 5.68434e-14 -24 1.59028e-15 -9.93923e-16 1.74189 -5.68434e-14 2.84217e-14 -20 1.59028e-15 -7.95139e-16 
